<svg width="938" height="898" viewBox="0 0 938 898" fill="none" xmlns="http://www.w3.org/2000/svg">
    <path d="M0.581055 559.573L155.543 263.418L458.429 421.901C540.21 464.693 571.817 565.678 529.025 647.46V647.46C486.234 729.241 385.248 760.848 303.467 718.056L0.581055 559.573Z" fill="#006EF6"/>
    <path d="M82.1709 403.643L133.238 306.046L309.921 398.495C336.872 412.596 347.288 445.876 333.186 472.826V472.826C319.084 499.777 285.805 510.193 258.854 496.091L82.1709 403.643Z" fill="#81E1F1"/>
    <circle cx="367.636" cy="416.547" r="101.92" transform="rotate(-62.3794 367.636 416.547)" fill="#B169E0"/>
    <path d="M120.911 329.604L292.895 0.916358L773.586 252.436C864.351 299.928 899.43 412.007 851.938 502.771V502.771C804.446 593.536 692.367 628.615 601.602 581.123L120.911 329.604Z" fill="#003DA2"/>
    <path d="M250.807 174.204L330.508 21.8823L409.695 63.3165C451.757 85.3254 468.014 137.265 446.005 179.328V179.328C423.996 221.39 372.056 237.647 329.994 215.638L250.807 174.204Z" fill="#00BE85"/>
    <path d="M392.361 473.067C349.922 450.861 333.519 398.455 355.725 356.016V356.016C377.932 313.577 430.337 297.174 472.777 319.381L618.61 395.687C661.05 417.894 677.452 470.299 655.246 512.739V512.739C633.04 555.178 580.634 571.58 538.195 549.374L392.361 473.067Z" fill="#FF7667"/>
    <path d="M0.581055 559.573L89.8014 389.059L317.527 508.215C364.613 532.853 382.811 590.996 358.173 638.082V638.082C333.536 685.168 275.393 703.366 228.306 678.729L0.581055 559.573Z" fill="#00BE85"/>
    <path d="M483.433 324.957C435.108 299.671 416.431 239.998 441.717 191.672V191.672C467.003 143.347 526.676 124.67 575.001 149.956L699.521 215.11C747.846 240.396 766.523 300.07 741.237 348.395V348.395C715.951 396.72 656.278 415.397 607.953 390.111L483.433 324.957Z" fill="#B169E0"/>
    </svg>
    