<svg width="88" height="83" viewBox="0 0 88 83" fill="none" xmlns="http://www.w3.org/2000/svg">
<rect width="88" height="83" rx="21" fill="#F0F0F0"/>
<path d="M58 31.8125C59.2764 31.8125 60.5004 31.3055 61.403 30.403C62.3055 29.5004 62.8125 28.2764 62.8125 27C62.8125 25.7236 62.3055 24.4996 61.403 23.597C60.5004 22.6945 59.2764 22.1875 58 22.1875C56.7236 22.1875 55.4996 22.6945 54.597 23.597C53.6945 24.4996 53.1875 25.7236 53.1875 27C53.1875 28.2764 53.6945 29.5004 54.597 30.403C55.4996 31.3055 56.7236 31.8125 58 31.8125Z" fill="#136CFB"/>
<path d="M56.32 34.2625C54.9572 33.9544 53.7095 33.2665 52.7215 32.2785C51.7335 31.2905 51.0456 30.0429 50.7375 28.68C50.51 27.6125 50.4925 26.58 50.685 25.6C50.7406 25.3468 50.7386 25.0842 50.679 24.8319C50.6195 24.5795 50.5039 24.3437 50.3409 24.1421C50.1779 23.9404 49.9716 23.778 49.7374 23.6669C49.5031 23.5557 49.2468 23.4987 48.9875 23.5H35.25C30.42 23.5 26.5 27.42 26.5 32.25V44.4125C26.5 49.2425 30.42 53.1625 35.25 53.1625H37.875C38.365 53.1625 38.995 53.4775 39.275 53.8625L41.9 57.345C43.055 58.885 44.945 58.885 46.1 57.345L48.725 53.8625C48.888 53.6452 49.0994 53.4688 49.3424 53.3473C49.5854 53.2258 49.8533 53.1625 50.125 53.1625H52.7675C57.5975 53.1625 61.5 49.26 61.5 44.43V36.0125C61.5 34.91 60.485 34.105 59.4 34.315C58.42 34.49 57.3875 34.49 56.32 34.2625ZM37 41C36.02 41 35.25 40.2125 35.25 39.25C35.25 38.2875 36.02 37.5 37 37.5C37.9625 37.5 38.75 38.2875 38.75 39.25C38.75 40.2125 37.98 41 37 41ZM44 41C43.02 41 42.25 40.2125 42.25 39.25C42.25 38.2875 43.02 37.5 44 37.5C44.9625 37.5 45.75 38.2875 45.75 39.25C45.75 40.2125 44.98 41 44 41ZM51 41C50.02 41 49.25 40.2125 49.25 39.25C49.25 38.2875 50.02 37.5 51 37.5C51.9625 37.5 52.75 38.2875 52.75 39.25C52.75 40.2125 51.98 41 51 41Z" fill="#136CFB"/>
</svg>
